<?xml version="1.0" encoding="UTF-8" standalone="no"?>
<!-- Created with Inkscape (http://www.inkscape.org/) -->

<svg
   version="1.1"
   id="svg1204"
   width="600"
   height="600"
   viewBox="0 0 600 600"
   sodipodi:docname="new-logo-scan-chicken.svg"
   inkscape:version="1.1.2 (0a00cf5339, 2022-02-04)"
   xmlns:inkscape="http://www.inkscape.org/namespaces/inkscape"
   xmlns:sodipodi="http://sodipodi.sourceforge.net/DTD/sodipodi-0.dtd"
   xmlns="http://www.w3.org/2000/svg"
   xmlns:svg="http://www.w3.org/2000/svg">
  <defs
     id="defs1208" />
  <sodipodi:namedview
     id="namedview1206"
     pagecolor="#505050"
     bordercolor="#ffffff"
     borderopacity="1"
     inkscape:pageshadow="0"
     inkscape:pageopacity="0"
     inkscape:pagecheckerboard="1"
     showgrid="false"
     inkscape:zoom="0.98877098"
     inkscape:cx="163.83976"
     inkscape:cy="325.65681"
     inkscape:window-width="1904"
     inkscape:window-height="995"
     inkscape:window-x="8"
     inkscape:window-y="40"
     inkscape:window-maximized="0"
     inkscape:current-layer="g1210" />
  <g
     inkscape:groupmode="layer"
     inkscape:label="Image"
     id="g1210">
    <rect
       style="fill:#213439;fill-opacity:1;stroke:none;stroke-width:4.05713;stroke-miterlimit:4;stroke-dasharray:none;stroke-opacity:1;paint-order:stroke markers fill"
       id="rect3355"
       width="604.44415"
       height="603.08582"
       x="-2.8605485"
       y="-0.66431379"
       ry="112.26057" />
    <path
       style="fill:#26b170;fill-opacity:1;stroke:#000000;stroke-width:3.79053;stroke-miterlimit:4;stroke-dasharray:none;stroke-opacity:1"
       d="m 199.2385,500.98731 c -17.22238,-3.74219 -33.6975,-16.64151 -41.55157,-32.53313 -2.37519,-4.80588 -5.12111,-8.99173 -6.10204,-9.3019 -0.98092,-0.31015 -4.98978,-2.08365 -8.90857,-3.94111 -23.63939,-11.20479 -37.69215,-39.83383 -32.26812,-65.73836 6.86535,-32.78801 37.78985,-54.7755 70.00873,-49.77657 4.60378,0.7143 9.47157,1.888 10.81733,2.60825 2.23064,1.19379 3.89247,-0.19408 18.8063,-15.7061 l 16.35946,-17.01561 -1.87205,-6.57302 c -1.43041,-5.02234 -1.87077,-11.75353 -1.86656,-28.53186 0.005,-19.19833 0.34864,-23.33907 2.73499,-32.93824 8.80776,-35.42941 25.82677,-64.08977 54.58091,-91.91531 31.36733,-30.35434 70.0944,-47.96833 109.72729,-49.906572 52.76705,-2.580555 96.18583,26.402202 111.17601,74.211822 6.23927,19.89944 6.99718,46.00025 1.99307,68.63661 -2.86343,12.95286 -3.65803,14.60058 -8.45028,17.52262 -4.4096,2.68873 -7.5931,2.79555 -15.13438,0.50784 -20.79174,-6.30741 -53.74053,5.91816 -72.38511,26.85828 -8.00092,8.98602 -15.69642,21.61286 -19.01833,31.20541 -4.09611,11.82824 -5.17035,28.22573 -2.45995,37.54917 5.22086,17.95913 0.0779,22.78598 -29.90471,28.06707 -12.72847,2.24198 -33.97895,2.25973 -45.65124,0.0381 l -8.66796,-1.64977 -15.90085,16.40586 c -9.76719,10.0774 -15.70423,17.07457 -15.39112,18.13944 3.31497,11.27477 4.10695,15.72831 4.11865,23.16067 0.0274,17.38727 -5.55881,30.91031 -17.90006,43.33257 -16.00342,16.10845 -35.30765,21.9733 -56.88983,17.2838 z m 25.03262,-27.91855 c 13.22267,-4.27045 22.32842,-17.30316 22.47416,-32.16639 0.0662,-6.75222 -0.51162,-9.33291 -3.49336,-15.60232 -4.56639,-9.60126 -5.19458,-12.54828 -3.51244,-16.4777 0.75042,-1.75291 8.70207,-10.86696 17.67037,-20.25339 l 16.30599,-17.06626 -5.87018,-4.01687 c -8.6219,-5.89989 -20.85607,-17.7716 -25.05103,-24.30886 -2.0159,-3.14154 -4.08607,-5.71191 -4.60031,-5.71191 -0.51425,0 -7.87114,7.33383 -16.34864,16.2974 -8.4775,8.96357 -16.81801,17.02477 -18.53451,17.91378 -4.6906,2.4294 -9.58239,1.96485 -16.27599,-1.54566 -5.19524,-2.72469 -7.38788,-3.16203 -15.85283,-3.16203 -8.4237,0 -10.66752,0.44282 -15.74489,3.10733 -29.43507,15.44697 -23.02223,57.50351 9.84293,64.55183 7.28502,1.56235 11.06672,5.08723 13.21344,12.31607 2.66243,8.96528 6.07521,14.75968 11.43737,19.4189 9.53519,8.28521 21.94603,10.70886 34.33992,6.70608 z m 128.17984,-115.70585 3.8644,-0.84922 0.29093,-15.01403 c 0.2399,-12.38122 0.83027,-16.79508 3.36665,-25.17092 13.3544,-44.09962 51.529,-77.77083 95.34468,-84.09696 5.30747,-0.76629 12.39761,-1.10969 15.75585,-0.76308 l 6.10591,0.63018 0.70054,-4.23648 c 1.32945,-8.03977 0.72112,-29.20588 -1.09473,-38.09028 -5.97061,-29.21229 -27.31218,-52.28594 -55.38781,-59.883 -9.41911,-2.54873 -33.16763,-3.41923 -44.30445,-1.62397 -26.75807,4.31345 -55.21545,19.03988 -77.70738,40.21283 -28.24118,26.58506 -45.68113,59.55536 -49.67521,93.9112 -2.28726,19.67433 0.26998,36.06528 8.19692,52.5392 11.50158,23.90278 32.45736,38.85377 60.67534,43.28911 7.1623,1.12578 27.15175,0.62139 33.86836,-0.85458 z"
       id="path2350" />
    <path
       style="fill:#26b170;fill-opacity:1;stroke:#000000;stroke-width:4;stroke-miterlimit:4;stroke-dasharray:none;stroke-opacity:1"
       d="m 98.860628,560.5741 c -29.011704,-4.53308 -54.940186,-30.42495 -59.717445,-59.63309 -0.882915,-5.39807 -1.609541,-23.65311 -1.614759,-40.56673 -0.01008,-34.49845 0.872118,-38.12118 10.389303,-42.63738 6.978144,-3.31133 9.777434,-3.34444 16.416224,-0.19413 9.524037,4.51943 10.473902,8.12225 11.654298,44.20427 0.587484,17.95797 1.819457,35.10633 2.737695,38.10743 2.291202,7.48834 10.608256,16.54059 18.484862,20.11884 5.683314,2.58188 11.252184,2.98364 41.788154,3.01478 l 35.23104,0.0359 5.31985,4.49839 c 9.28239,7.84909 8.66626,22.7179 -1.2335,29.76715 -3.81111,2.71375 -8.43012,3.20808 -36.99792,3.95948 -17.95371,0.47218 -37.05973,0.16844 -42.457802,-0.675 z M 429.9118,553.28085 c -4.35715,-2.36785 -9.62079,-11.3146 -9.62079,-16.35273 0,-5.13289 5.3106,-14.02864 9.74327,-16.32086 3.07444,-1.58985 14.18871,-2.59298 36.99336,-3.33889 17.92922,-0.58643 35.05406,-1.81755 38.05517,-2.7358 7.48833,-2.2912 16.54058,-10.60825 20.11885,-18.48487 2.58172,-5.683 2.98362,-11.25161 3.01477,-41.77133 0.0392,-38.49593 0.37843,-40.04069 9.86865,-44.94827 9.17439,-4.74426 20.7341,-1.53044 25.13892,6.98909 3.21596,6.22012 5.33187,64.57135 2.83135,78.08071 -5.56575,30.06936 -31.46484,55.51281 -60.82701,59.75686 -17.29319,2.49956 -70.23939,1.88525 -75.31654,-0.87391 z M 42.037908,178.58578 c -2.462816,-1.3363 -5.514785,-4.43524 -6.782169,-6.88656 -3.209027,-6.20667 -5.320747,-64.5792 -2.824217,-78.066931 5.387545,-29.106634 30.298871,-54.362706 58.882421,-59.697255 4.846109,-0.904424 23.636637,-1.644412 41.756737,-1.644412 h 32.94564 l 5.16154,4.714358 c 6.68029,6.101488 8.31098,14.149457 4.49597,22.189005 -4.51056,9.505268 -7.8475,10.378316 -44.21462,11.567838 -17.92922,0.586427 -35.054046,1.817546 -38.055168,2.735797 -7.48833,2.291202 -16.54057,10.608244 -20.118843,18.484864 -2.581731,5.683004 -2.983623,11.251606 -3.01476,41.771336 -0.03922,38.49593 -0.378449,40.04069 -9.868658,44.94828 -5.928908,3.06595 -12.576573,3.02384 -18.363873,-0.11629 z M 532.7713,170.4069 c -8.11058,-4.40076 -9.14368,-8.89078 -10.35867,-45.02048 -1.18903,-35.358236 -2.03026,-39.545964 -9.79355,-48.753627 -8.86697,-10.516642 -13.60407,-11.55039 -53.11437,-11.590692 -38.49594,-0.03921 -40.04069,-0.378434 -44.94828,-9.868645 -4.55421,-8.806901 -1.86165,-19.672928 6.18061,-24.94245 5.29815,-3.47146 60.77066,-5.596217 77.25341,-2.959036 30.91042,4.945592 56.45134,29.847075 61.35322,59.817215 0.88292,5.398068 1.60954,23.653105 1.61476,40.566735 0.0113,34.49844 -0.8721,38.12117 -10.38929,42.63737 -6.89363,3.27123 -11.91921,3.3033 -17.79784,0.11351 z"
       id="path1271"
       inkscape:transform-center-x="-10.113587"
       inkscape:transform-center-y="-2.0175486"
       sodipodi:nodetypes="sscsssssscsssssssssssssssssscssscssssscssscssssssscscc" />
  </g>
</svg>
